<svg id="Layer_1" data-name="Layer 1" xmlns="http://www.w3.org/2000/svg" viewBox="0 0 73 25"><defs><style>.cls-1{fill:#fff;}</style></defs><title>1T9-Logo</title><path class="cls-1" d="M12.19,14.94a9.55,9.55,0,0,1,1.12-1.36,1.28,1.28,0,0,1,1.1-.31H45.68c.93,0,.94,0,.81.93-.08.54-.12,1.09-.18,1.64,0,.13-.05.28.07.37s.28,0,.42-.06l6.58-3.68q2.15-1.19,4.27-2.39c.68-.38.69-.52.06-.92l-9.3-5.93c-.54-.35-.63-.31-.71.35a11,11,0,0,0-.18,1.71c0,.65-.31.74-.86.74-2.58,0-5.17,0-7.75,0H24.6c-.84,0-.85,0-.55-.81a27.4,27.4,0,0,1,1.58-3.49.68.68,0,0,1,.72-.44c.81,0,1.63,0,2.45,0q11.16,0,22.32,0a8.81,8.81,0,0,1,5.82,2.51c1.84,1.58,3.49,3.37,5.25,5A7.15,7.15,0,0,0,64.66,10,21.45,21.45,0,0,1,69,12.4a4.7,4.7,0,0,1,1.21,1.78,8.93,8.93,0,0,1,.72,5.17.84.84,0,0,1-1.08.89,9.13,9.13,0,0,1-1.58-.06c-.62-.21-.32-.92-.45-1.39A5,5,0,0,0,62.45,15a4.86,4.86,0,0,0-4.33,4.31c-.07.72-.32.89-1,.89q-9.7,0-19.41,0c-.56,0-.84-.06-.93-.74a4.71,4.71,0,0,0-4.63-4.32,4.76,4.76,0,0,0-4.89,4.41c-.07.52-.26.6-.74.66-1.69.22-3-.75-4.4-1.36-.28-.12-.29-.37-.29-.62,0-.77,0-1.54,0-2.31s0-.89-.84-.89H13A1.28,1.28,0,0,1,12.19,14.94Z"/><path class="cls-1" d="M56.11,10H17.84c-.22,0-.54.14-.67-.1s.18-.41.32-.59c.4-.51.84-1,1.2-1.5a1.22,1.22,0,0,1,1.18-.54H47.23c1.24,0,1.23,0,1.31-1.22,0-.26-.13-.62.21-.77s.48.17.69.3l6.37,4a3.24,3.24,0,0,1,.35.27Z"/><path class="cls-1" d="M63,23.58a3.64,3.64,0,1,1,3.65-3.64A3.62,3.62,0,0,1,63,23.58Zm0-5.51a1.87,1.87,0,1,0,0,3.73,1.87,1.87,0,1,0,0-3.73Z"/><path class="cls-1" d="M32,16.3a3.64,3.64,0,1,0,3.64,3.64A3.59,3.59,0,0,0,32,16.3Zm0,5.5A1.87,1.87,0,1,1,33.89,20,1.9,1.9,0,0,1,32,21.8Z"/><path class="cls-1" d="M1.37,12.15A1.9,1.9,0,0,0,2.8,10.63c.65-2,1.82-3.84,2.63-5.81.08-.2.33-.42.15-.59S5.2,4.31,5,4.4a1.28,1.28,0,0,1-.37.14c-.17,0-.37.09-.46-.11s0-.31.16-.41C5,3.49,5.81,3.13,6.51,2.64c.29-.2.5.25.56.55a2.35,2.35,0,0,1-.4,1.57C6,5.93,5.4,7.13,4.75,8.3a17.71,17.71,0,0,0-1.07,2.91c-.11.3.07.39.32.42s.55,0,.51.38a.56.56,0,0,1-.62.55A7,7,0,0,0,1.37,13,1.92,1.92,0,0,1,1.37,12.15Z"/><path class="cls-1" d="M14.13,10.72a5.62,5.62,0,0,0,1.69-2.23.41.41,0,0,0,0-.37c-.1-.15-.23,0-.33.05A1.34,1.34,0,0,1,13.86,8,1.86,1.86,0,0,1,13,6.13a4,4,0,0,1,1.08-2.08c.11-.12.3-.26.22-.44s-.3-.13-.48-.13a2.72,2.72,0,0,0-2.7,1.88c-1,2.32-2,4.63-3,7-.12.29-.25.57-.61.38s-.55-.41-.37-.81.44-1.06.68-1.58c.88-1.87,1.75-3.74,2.65-5.6.23-.49.12-.63-.39-.64a3.85,3.85,0,0,0-1.43.21.56.56,0,0,1-.67-.1c-.27-.27-.31-.5.13-.6a11.4,11.4,0,0,1,2.33-.43,18.67,18.67,0,0,0,2.87-.47A2.69,2.69,0,0,1,15,2.77a.71.71,0,0,0,.57,0,1.83,1.83,0,0,1,2.49,1.66A6.55,6.55,0,0,1,17.12,8a11,11,0,0,1-3.28,4.4c-.22.16-.43.52-.72.27s0-.54.06-.8c.16-.45.72-.59.87-1ZM15,7.54c1.19.1,1.78-1,2.14-2.22.19-.65-.2-1.15-.47-1.67A.45.45,0,0,0,16,3.51,4.18,4.18,0,0,0,14,6,1.12,1.12,0,0,0,15,7.54Z"/></svg>