<svg id="Layer_1" data-name="Layer 1" xmlns="http://www.w3.org/2000/svg" viewBox="0 0 29 23"><defs><style>.cls-1{fill:#fff;}</style></defs><title>Icons</title><path class="cls-1" d="M15.79,15.34H10.43a.86.86,0,0,1-1-.77c-.34-1.33-.66-2.67-1-4s-.7-2.84-1-4.26A.3.3,0,0,0,7.06,6c-1.17,0-2.35,0-3.52,0a.91.91,0,0,1-.92-1.24.85.85,0,0,1,.86-.58c1.52,0,3,0,4.55,0a.82.82,0,0,1,.9.75q1,4.08,2,8.17c.07.29.17.39.49.39h8.79a.38.38,0,0,0,.43-.32c.69-2.26,1.4-4.52,2.1-6.78a1,1,0,0,1,1.45-.56.81.81,0,0,1,.31,1c-.46,1.53-.94,3.07-1.41,4.6l-.9,2.87a3.39,3.39,0,0,1-.2.53.78.78,0,0,1-.78.49Z"/><path class="cls-1" d="M19.69,20a1.83,1.83,0,1,1,1.82-1.85A1.82,1.82,0,0,1,19.69,20Z"/><path class="cls-1" d="M10.67,18.14a1.81,1.81,0,0,1,1.83-1.83,1.83,1.83,0,1,1,0,3.66A1.81,1.81,0,0,1,10.67,18.14Z"/><path class="cls-1" d="M5.63,8.73H4.1a.9.9,0,1,1,0-1.8H6.91c.15,0,.22,0,.24.19.1.48.19,1,.3,1.44,0,.2-.06.19-.2.19Z"/><path class="cls-1" d="M6.51,11.3H5.37a.9.9,0,1,1,0-1.8h2a.23.23,0,0,1,.27.2c.09.46.2.92.31,1.38,0,.2,0,.24-.21.24Z"/></svg>