<svg id="Layer_1" data-name="Layer 1" xmlns="http://www.w3.org/2000/svg" viewBox="0 0 42 33"><defs><style>.cls-1,.cls-4{fill:#686868;}.cls-2{fill:#8cc63f;}.cls-3{fill:#00a99d;stroke:#00a99d;stroke-miterlimit:10;stroke-width:0.15px;}.cls-4{font-size:1.91px;font-family:Copperplate;}</style></defs><title>logos1</title><path class="cls-1" d="M20,17.42l.07-1.15a22.93,22.93,0,0,0,4.9,0v1.5l-.13-.1c.05-1.17-.79-1.23-1.74-1.1-.27,0-.33.26-.33.47v4.32c0,.58.5.48.83.64H21.42c.07-.16.21-.09.31-.1.41,0,.56-.25.56-.65,0-1.37,0-2.74,0-4.11,0-.45-.21-.6-.63-.62A1.39,1.39,0,0,0,20,17.42Z"/><path class="cls-2" d="M6.84,19.39c0-.81,0-1.63-.06-2.45,0-1,0-1.94-.07-2.92A13.34,13.34,0,0,0,6.84,19.39Z"/><path class="cls-2" d="M20.36,22.7l-7.69.05c-1,0-2,0-2.95,0-.5,0-.41-.4-.46-.62C9,21,7.6,20.74,7.25,20.74s-.38-.13-.38-.4l0-.95A13.34,13.34,0,0,1,6.71,14c0-1.34-.07-2.68-.11-4a.81.81,0,0,0-.32-.76C5,8.41,3.82,7.57,2.59,6.73c-.33-.22-.66-.32-.91,0s0,.58.31.78C3,8.23,4,8.91,5.06,9.61c.21.14.47.24.47.58.09,3.46.18,6.92.29,10.38a.35.35,0,0,1-.27.41A2.43,2.43,0,0,0,4.1,23.64a2.73,2.73,0,0,0,2.08,2.22,2.67,2.67,0,0,0,3.23-1.74.43.43,0,0,1,.49-.35l7.33,0,3.42,0c.24,0,.44-.07.5-.32a.53.53,0,0,0-.23-.6A.85.85,0,0,0,20.36,22.7Z"/><path class="cls-3" d="M13.49,18.49c.29-.14.47-.2.63-.29.33-.21.54-.16.61.25s.16.2.3.06a2,2,0,0,1,.65-.42,1,1,0,0,1,1.53,1q0,.86,0,1.71c0,.39.05.7.53.76H16.26c.53-.06.51-.45.51-.84s0-1,0-1.51-.36-.93-.9-.9a1.11,1.11,0,0,0-1.11,1c0,.46,0,.93,0,1.4s-.05.8.51.87H13.79c.5-.09.54-.45.53-.88s0-1,0-1.51C14.31,18.54,14.29,18.53,13.49,18.49Z"/><path class="cls-3" d="M38,18.41a1.5,1.5,0,0,1,1.3-.34.94.94,0,0,1,.77,1c0,.26-.15.27-.34.27-.53,0-1.07.05-1.61,0-.38,0-.46.13-.44.48.07,1.39,1,1.91,2.33,1.37a1.59,1.59,0,0,1-1.69.49,1.5,1.5,0,0,1-1.13-1.29,1.79,1.79,0,0,1,.82-2c.09.09,0,.15,0,.22-.3.53-.29.55.31.55a5,5,0,0,0,.77,0c.15,0,.38.1.43-.14a.59.59,0,0,0-.16-.53.89.89,0,0,0-.86-.2C38.31,18.31,38.2,18.53,38,18.41Z"/><path class="cls-3" d="M19.61,18.49c-.32.68-.32.68.38.68a4.28,4.28,0,0,0,.62,0c.17,0,.44.1.48-.16a.6.6,0,0,0-.38-.67,4.72,4.72,0,0,0-.69-.16c1-.27,1.55,0,1.65.75,0,.26,0,.39-.32.39-.57,0-1.14,0-1.71,0-.28,0-.35.1-.36.36,0,1.44.92,2.05,2.33,1.49a1.58,1.58,0,0,1-1.73.48,1.61,1.61,0,0,1-1.11-1.43A1.64,1.64,0,0,1,19.61,18.49Z"/><path class="cls-3" d="M25.39,18.48c.2-.13.34-.23.49-.31a1.08,1.08,0,0,1,1.72,1c0,.57,0,1.14,0,1.71s0,.51.68.71H26.65c.51-.08.49-.46.48-.84s0-1,0-1.46c0-.79-.48-1.11-1.25-.87A.63.63,0,0,1,25.39,18.48Z"/><path class="cls-3" d="M33.44,18.44a5.32,5.32,0,0,1,.67-.35,1,1,0,0,1,1.5,1c0,.53,0,1.07,0,1.61s0,.78.52.86H34.66c.49-.1.53-.45.52-.85s0-.87,0-1.3c0-1-.45-1.3-1.4-1l-.28.07Z"/><path class="cls-3" d="M29.12,18.56a.59.59,0,0,0,.14-.06c1.09-.56,1.09-.56,1.09.64,0,.57,0,1.14,0,1.71,0,.35,0,.68.51.73H29.38c.56,0,.53-.46.53-.86s0-.94,0-1.41C29.9,18.58,29.87,18.55,29.12,18.56Z"/><path class="cls-3" d="M32.21,21.6c.46-.09.52-.4.51-.79s0-1,0-1.55c0-.72,0-.73-.7-.77.06-.15.21-.16.33-.2s.45-.38.64-.14a1.15,1.15,0,0,1,.21.82c-.07.7,0,1.41,0,2.12,0,.33.26.39.49.51Z"/><path class="cls-3" d="M24.17,21.58c.46-.06.54-.36.53-.76s0-1.07,0-1.61-.09-.82-.7-.69c0-.06,0-.1.05-.11.95-.45,1-.66,1.09.69,0,.58,0,1.15,0,1.72,0,.37,0,.7.52.76Z"/><path class="cls-3" d="M10.08,18.16a1.73,1.73,0,0,1,2.39,1.12,1.66,1.66,0,0,1-.83,2.11C12.57,19.84,11.87,18.29,10.08,18.16Z"/><path class="cls-3" d="M9.72,18.37a2.28,2.28,0,0,0,1.1,3.28,1.52,1.52,0,0,1-1.72-.9A1.8,1.8,0,0,1,9.72,18.37Z"/><path class="cls-3" d="M30.06,17c-.22,0-.37-.12-.36-.35a.32.32,0,0,1,.37-.34.31.31,0,0,1,.33.32A.33.33,0,0,1,30.06,17Z"/><text class="cls-4" transform="translate(10.1 25.48) scale(1.05 1)">one transport nine services</text></svg>