<svg id="Layer_1" data-name="Layer 1" xmlns="http://www.w3.org/2000/svg" viewBox="0 0 29 23"><defs><style>.cls-1{fill:#fff;}</style></defs><title>Icons</title><path class="cls-1" d="M16.08,11.76l.1.09-.95.9,0,0-.1-.09a3.68,3.68,0,1,1,.92-.93ZM10,9.68A3.08,3.08,0,1,0,13,6.59,3.08,3.08,0,0,0,10,9.68Z"/><path class="cls-1" d="M15.41,13l1-.92c.18.15.4.32.6.5l2.29,2.08a2.79,2.79,0,0,1,.46.61.68.68,0,0,1-.13.87.83.83,0,0,1-.52.31.73.73,0,0,1-.46-.1,2.94,2.94,0,0,1-.85-.72c-.78-.85-1.54-1.7-2.31-2.55Z"/><path class="cls-1" d="M10.3,9.61a2.72,2.72,0,0,1,1.42-2.34c.13-.08.2,0,.23.08s0,.12-.11.16a2.48,2.48,0,0,0-.51,4c.08.08.09.14,0,.22s-.15,0-.21,0A2.76,2.76,0,0,1,10.3,9.61Z"/></svg>